<svg width="70" height="64" viewBox="0 0 70 64" fill="none" xmlns="http://www.w3.org/2000/svg">
<g clip-path="url(#clip0_2166_5925)">
<path d="M54.1967 25.4209H15.7997C15.3626 25.4209 15.0078 25.7686 15.0078 26.1969V49.2882C15.0078 49.7166 15.3626 50.0642 15.7997 50.0642H54.1983C54.6354 50.0642 54.9902 49.7181 54.9886 49.2898V26.1969C54.9886 25.7686 54.6338 25.4209 54.1967 25.4209ZM27.4162 26.9729H31.4151V48.5122H27.4162V26.9729ZM25.8325 48.5122H21.8336V26.9729H25.8325V48.5122ZM32.9988 26.9729H36.9992V48.5122H32.9988V26.9729ZM38.5829 26.9729H42.5818V48.5122H38.5829V26.9729ZM44.1655 26.9729H48.1644V48.5122H44.1655V26.9729ZM16.5915 26.9729H20.2499V48.5122H16.5915V26.9729ZM53.4049 48.5122H49.7481V26.9729H53.4049V48.5122Z" fill="#0094D9"/>
<path d="M69.2081 27.7303C69.6453 27.7303 70 27.3827 70 26.9543V22.8259C70 22.3975 69.6453 22.0499 69.2081 22.0499H61.3118V20.7772C61.3118 20.3488 60.957 20.0012 60.5199 20.0012H55.2683V18.1977H56.407C56.8457 18.1977 57.1989 17.85 57.1989 17.4217C57.1989 16.9933 56.8441 16.6456 56.407 16.6456H55.2683V14.7056H56.407C56.8457 14.7056 57.1989 14.3579 57.1989 13.9296C57.1989 13.5012 56.8441 13.1536 56.407 13.1536H55.2683V11.2135H56.407C56.8457 11.2135 57.1989 10.8658 57.1989 10.4375C57.1989 10.0091 56.8441 9.66146 56.407 9.66146H55.2683V7.72141H56.407C56.8457 7.72141 57.1989 7.37375 57.1989 6.94539C57.1989 6.51702 56.8441 6.16937 56.407 6.16937H55.2683V4.55835C55.2683 4.12998 54.9136 3.78233 54.4765 3.78233H54.212V3.51072C54.212 2.60588 53.6339 1.83296 52.8215 1.521V0.776021C52.8215 0.347657 52.4667 0 52.0296 0C51.5925 0 51.2378 0.347657 51.2378 0.776021V1.52255C50.4269 1.83451 49.8505 2.60743 49.8505 3.51072V3.78233H49.5828C49.1457 3.78233 48.7909 4.12998 48.7909 4.55835V6.16937H47.6523C47.2152 6.16937 46.8604 6.51702 46.8604 6.94539C46.8604 7.37375 47.2152 7.72141 47.6523 7.72141H48.7909V9.66146H47.6523C47.2152 9.66146 46.8604 10.0091 46.8604 10.4375C46.8604 10.8658 47.2152 11.2135 47.6523 11.2135H48.7909V13.1536H47.6523C47.2152 13.1536 46.8604 13.5012 46.8604 13.9296C46.8604 14.3579 47.2152 14.7056 47.6523 14.7056H48.7909V16.6456H47.6523C47.2152 16.6456 46.8604 16.9933 46.8604 17.4217C46.8604 17.85 47.2152 18.1977 47.6523 18.1977H48.7909V20.0012H38.2387V18.1977H39.3774C39.8145 18.1977 40.1692 17.85 40.1692 17.4217C40.1692 16.9933 39.8145 16.6456 39.3774 16.6456H38.2387V14.7056H39.3774C39.8145 14.7056 40.1692 14.3579 40.1692 13.9296C40.1692 13.5012 39.8145 13.1536 39.3774 13.1536H38.2387V11.2135H39.3774C39.8145 11.2135 40.1692 10.8658 40.1692 10.4375C40.1692 10.0091 39.8145 9.66146 39.3774 9.66146H38.2387V7.72141H39.3774C39.8145 7.72141 40.1692 7.37375 40.1692 6.94539C40.1692 6.51702 39.8145 6.16937 39.3774 6.16937H38.2387V4.55835C38.2387 4.12998 37.8839 3.78233 37.4468 3.78233H37.1808V3.51072C37.1808 2.60588 36.6027 1.83296 35.7919 1.521V0.776021C35.7919 0.347657 35.4371 0 35 0C34.5629 0 34.2081 0.347657 34.2081 0.776021V1.521C33.3973 1.83296 32.8192 2.60588 32.8192 3.51072V3.78233H32.5532C32.1161 3.78233 31.7613 4.12998 31.7613 4.55835V6.16937H30.6226C30.1855 6.16937 29.8308 6.51702 29.8308 6.94539C29.8308 7.37375 30.1855 7.72141 30.6226 7.72141H31.7613V9.66146H30.6226C30.1855 9.66146 29.8308 10.0091 29.8308 10.4375C29.8308 10.8658 30.1855 11.2135 30.6226 11.2135H31.7613V13.1536H30.6226C30.1855 13.1536 29.8308 13.5012 29.8308 13.9296C29.8308 14.3579 30.1855 14.7056 30.6226 14.7056H31.7613V16.6456H30.6226C30.1855 16.6456 29.8308 16.9933 29.8308 17.4217C29.8308 17.85 30.1855 18.1977 30.6226 18.1977H31.7613V20.0012H21.2091V18.1977H22.3477C22.7848 18.1977 23.1396 17.85 23.1396 17.4217C23.1396 16.9933 22.7848 16.6456 22.3477 16.6456H21.2091V14.7056H22.3477C22.7848 14.7056 23.1396 14.3579 23.1396 13.9296C23.1396 13.5012 22.7848 13.1536 22.3477 13.1536H21.2091V11.2135H22.3477C22.7848 11.2135 23.1396 10.8658 23.1396 10.4375C23.1396 10.0091 22.7848 9.66146 22.3477 9.66146H21.2091V7.72141H22.3477C22.7848 7.72141 23.1396 7.37375 23.1396 6.94539C23.1396 6.51702 22.7848 6.16937 22.3477 6.16937H21.2091V4.55835C21.2091 4.12998 20.8543 3.78233 20.4172 3.78233H20.1511V3.51072C20.1511 2.60588 19.5731 1.83296 18.7622 1.521V0.776021C18.7622 0.347657 18.4075 0 17.9704 0C17.5333 0 17.1785 0.347657 17.1785 0.776021V1.521C16.3676 1.83296 15.7896 2.60588 15.7896 3.51072V3.78233H15.5235C15.0864 3.78233 14.7317 4.12998 14.7317 4.55835V6.16937H13.593C13.1559 6.16937 12.8011 6.51702 12.8011 6.94539C12.8011 7.37375 13.1559 7.72141 13.593 7.72141H14.7317V9.66146H13.593C13.1559 9.66146 12.8011 10.0091 12.8011 10.4375C12.8011 10.8658 13.1559 11.2135 13.593 11.2135H14.7317V13.1536H13.593C13.1559 13.1536 12.8011 13.5012 12.8011 13.9296C12.8011 14.3579 13.1559 14.7056 13.593 14.7056H14.7317V16.6456H13.593C13.1559 16.6456 12.8011 16.9933 12.8011 17.4217C12.8011 17.85 13.1559 18.1977 13.593 18.1977H14.7317V20.0012H9.48167C9.04457 20.0012 8.68982 20.3488 8.68982 20.7772V22.0499H0.791855C0.354751 22.0499 0 22.3975 0 22.8259V26.9543C0 27.3827 0.354751 27.7303 0.791855 27.7303H2.50226V47.7548H0.791855C0.354751 47.7548 0 48.1024 0 48.5308V52.6608C0 53.0891 0.354751 53.4368 0.791855 53.4368H8.68982V54.7079C8.68982 55.1363 9.04457 55.4839 9.48167 55.4839H14.9011V63.224C14.9011 63.6523 15.2559 64 15.693 64H19.9057C20.3428 64 20.6975 63.6523 20.6975 63.224V61.5478H49.3009V63.224C49.3009 63.6523 49.6557 64 50.0928 64H54.307C54.7457 64 55.0989 63.6523 55.1005 63.224V55.4839H60.5183C60.957 55.4839 61.3102 55.1378 61.3118 54.7095V53.4368H69.2081C69.6453 53.4368 70 53.0891 70 52.6608V48.5308C70 48.1024 69.6453 47.7548 69.2081 47.7548H67.4977V27.7303H69.2081ZM51.4342 3.51072C51.4342 3.18789 51.7018 2.9256 52.0312 2.9256C52.3606 2.9256 52.6283 3.18789 52.6283 3.51072V3.78233H51.4342V3.51072ZM50.3747 5.33437H53.6846V6.16937H50.3747V5.33437ZM50.3747 7.72141H53.6846V9.66146H50.3747V7.72141ZM50.3747 11.2135H53.6846V13.1536H50.3747V11.2135ZM50.3747 14.7056H53.6846V16.6456H50.3747V14.7056ZM50.3747 18.1977H53.6846V20.0012H50.3747V18.1977ZM34.4029 3.51072C34.4029 3.18789 34.6706 2.9256 35 2.9256C35.3294 2.9256 35.5971 3.18789 35.5971 3.51072V3.78233H34.4029V3.51072ZM33.345 5.33437H36.655V6.16937H33.345V5.33437ZM33.345 7.72141H36.655V9.66146H33.345V7.72141ZM33.345 11.2135H36.655V13.1536H33.345V11.2135ZM33.345 14.7056H36.655V16.6456H33.345V14.7056ZM33.345 18.1977H36.655V20.0012H33.345V18.1977ZM17.3733 3.51072C17.3733 3.18789 17.641 2.9256 17.9704 2.9256C18.2998 2.9256 18.5674 3.18789 18.5674 3.51072V3.78233H17.3733V3.51072ZM16.3154 5.33437H19.6253V6.16937H16.3154V5.33437ZM16.3154 7.72141H19.6253V9.66146H16.3154V7.72141ZM16.3154 11.2135H19.6253V13.1536H16.3154V11.2135ZM16.3154 14.7056H19.6253V16.6456H16.3154V14.7056ZM16.3154 18.1977H19.6253V20.0012H16.3154V18.1977ZM1.58371 51.8848V49.3068H3.29412C3.73122 49.3068 4.08597 48.9592 4.08597 48.5308V26.9543C4.08597 26.5259 3.73122 26.1783 3.29412 26.1783H1.58371V23.6019H8.68982V51.8848H1.58371ZM53.5167 62.448H50.8862V60.7718C50.8862 60.3434 50.5314 59.9957 50.0943 59.9957H19.9057C19.4686 59.9957 19.1138 60.3434 19.1138 60.7718V62.448H16.4848V55.4839H53.5167V62.448ZM59.7281 53.9319H10.2735V21.5532H59.7281V53.9319ZM68.4163 51.8848H61.3118V23.6019H68.4163V26.1783H66.7059C66.2688 26.1783 65.914 26.5259 65.914 26.9543V48.5308C65.914 48.9592 66.2688 49.3068 66.7059 49.3068H68.4163V51.8848Z" fill="#0094D9"/>
</g>
<defs>
<clipPath id="clip0_2166_5925">
<rect width="70" height="64" fill="white"/>
</clipPath>
</defs>
</svg>
