<svg width="58" height="59" viewBox="0 0 58 59" fill="none" xmlns="http://www.w3.org/2000/svg">
<path d="M31.584 40.0739C31.5023 39.941 31.3888 39.8315 31.254 39.7557C31.1192 39.6799 30.9677 39.6403 30.8137 39.6406H28.6568L29.8077 37.2898L28.1946 36.4601L26.3821 40.1476C26.3126 40.288 26.2795 40.4441 26.286 40.6011C26.2924 40.7581 26.3382 40.9108 26.419 41.0447C26.4999 41.1787 26.613 41.2894 26.7477 41.3663C26.8824 41.4432 27.0342 41.4839 27.1887 41.4844H29.3455L28.1946 43.8351L29.8077 44.6648L31.6202 40.9773C31.691 40.8363 31.7248 40.679 31.7185 40.5208C31.7121 40.3625 31.6658 40.2086 31.584 40.0739Z" fill="#0094D9"/>
<path d="M6.34375 49.7812C6.1034 49.7812 5.87289 49.8784 5.70293 50.0513C5.53298 50.2241 5.4375 50.4586 5.4375 50.7031V56.2344C5.4375 56.4789 5.53298 56.7134 5.70293 56.8862C5.87289 57.0591 6.1034 57.1562 6.34375 57.1562H51.6562C51.8966 57.1562 52.1271 57.0591 52.2971 56.8862C52.467 56.7134 52.5625 56.4789 52.5625 56.2344V50.7031C52.5625 50.4586 52.467 50.2241 52.2971 50.0513C52.1271 49.8784 51.8966 49.7812 51.6562 49.7812H49.8438V25.6466C50.4431 25.4253 50.947 24.9968 51.2673 24.436C51.5875 23.8752 51.7039 23.2177 51.5959 22.5785C51.4879 21.9392 51.1625 21.3589 50.6766 20.939C50.1906 20.5191 49.5751 20.2863 48.9375 20.2812H42.5938V18.4375H43.5C43.6545 18.437 43.8063 18.3964 43.941 18.3194C44.0757 18.2425 44.1888 18.1318 44.2696 17.9979C44.3504 17.8639 44.3962 17.7112 44.4027 17.5542C44.4092 17.3972 44.3761 17.2411 44.3066 17.1008L43.1556 14.75H43.5C43.6545 14.7495 43.8063 14.7089 43.941 14.6319C44.0757 14.555 44.1888 14.4443 44.2696 14.3104C44.3504 14.1764 44.3962 14.0237 44.4027 13.8667C44.4092 13.7097 44.3761 13.5536 44.3066 13.4133L43.1556 11.0625H43.5C43.6545 11.062 43.8063 11.0214 43.941 10.9444C44.0757 10.8675 44.1888 10.7568 44.2696 10.6229C44.3504 10.4889 44.3962 10.3362 44.4027 10.1792C44.4092 10.0222 44.3761 9.86612 44.3066 9.72578L42.4941 6.03828C42.4188 5.88625 42.3035 5.7584 42.1612 5.66891C42.0188 5.57941 41.8549 5.53177 41.6875 5.53125H40.7812V2.76562H38.9688V5.53125H38.0625C37.8951 5.53177 37.7312 5.57941 37.5888 5.66891C37.4465 5.7584 37.3312 5.88625 37.2559 6.03828L35.4434 9.72578C35.3739 9.86612 35.3408 10.0222 35.3473 10.1792C35.3538 10.3362 35.3996 10.4889 35.4804 10.6229C35.5612 10.7568 35.6743 10.8675 35.809 10.9444C35.9437 11.0214 36.0955 11.062 36.25 11.0625H36.5944L35.4434 13.4133C35.3739 13.5536 35.3408 13.7097 35.3473 13.8667C35.3538 14.0237 35.3996 14.1764 35.4804 14.3104C35.5612 14.4443 35.6743 14.555 35.809 14.6319C35.9437 14.7089 36.0955 14.7495 36.25 14.75H36.5944L35.4434 17.1008C35.3739 17.2411 35.3408 17.3972 35.3473 17.5542C35.3538 17.7112 35.3996 17.8639 35.4804 17.9979C35.5612 18.1318 35.6743 18.2425 35.809 18.3194C35.9437 18.3964 36.0955 18.437 36.25 18.4375H37.1562V20.2812H31.7188V18.4375H32.625C32.7795 18.437 32.9313 18.3964 33.066 18.3194C33.2007 18.2425 33.3138 18.1318 33.3946 17.9979C33.4754 17.8639 33.5212 17.7112 33.5277 17.5542C33.5342 17.3972 33.5011 17.2411 33.4316 17.1008L32.2806 14.75H32.625C32.7795 14.7495 32.9313 14.7089 33.066 14.6319C33.2007 14.555 33.3138 14.4443 33.3946 14.3104C33.4754 14.1764 33.5212 14.0237 33.5277 13.8667C33.5342 13.7097 33.5011 13.5536 33.4316 13.4133L32.2806 11.0625H32.625C32.7795 11.062 32.9313 11.0214 33.066 10.9444C33.2007 10.8675 33.3138 10.7568 33.3946 10.6229C33.4754 10.4889 33.5212 10.3362 33.5277 10.1792C33.5342 10.0222 33.5011 9.86612 33.4316 9.72578L31.6191 6.03828C31.5438 5.88625 31.4285 5.7584 31.2862 5.66891C31.1438 5.57941 30.9799 5.53177 30.8125 5.53125H29.9062V2.76562H28.0938V5.53125H27.1875C27.0201 5.53177 26.8562 5.57941 26.7138 5.66891C26.5715 5.7584 26.4562 5.88625 26.3809 6.03828L24.5684 9.72578C24.4989 9.86612 24.4658 10.0222 24.4723 10.1792C24.4788 10.3362 24.5246 10.4889 24.6054 10.6229C24.6862 10.7568 24.7993 10.8675 24.934 10.9444C25.0687 11.0214 25.2205 11.062 25.375 11.0625H25.7194L24.5684 13.4133C24.4989 13.5536 24.4658 13.7097 24.4723 13.8667C24.4788 14.0237 24.5246 14.1764 24.6054 14.3104C24.6862 14.4443 24.7993 14.555 24.934 14.6319C25.0687 14.7089 25.2205 14.7495 25.375 14.75H25.7194L24.5684 17.1008C24.4989 17.2411 24.4658 17.3972 24.4723 17.5542C24.4788 17.7112 24.5246 17.8639 24.6054 17.9979C24.6862 18.1318 24.7993 18.2425 24.934 18.3194C25.0687 18.3964 25.2205 18.437 25.375 18.4375H26.2812V20.2812H20.8438V18.4375H21.75C21.9045 18.437 22.0563 18.3964 22.191 18.3194C22.3257 18.2425 22.4388 18.1318 22.5196 17.9979C22.6004 17.8639 22.6462 17.7112 22.6527 17.5542C22.6592 17.3972 22.6261 17.2411 22.5566 17.1008L21.4056 14.75H21.75C21.9045 14.7495 22.0563 14.7089 22.191 14.6319C22.3257 14.555 22.4388 14.4443 22.5196 14.3104C22.6004 14.1764 22.6462 14.0237 22.6527 13.8667C22.6592 13.7097 22.6261 13.5536 22.5566 13.4133L21.4056 11.0625H21.75C21.9045 11.062 22.0563 11.0214 22.191 10.9444C22.3257 10.8675 22.4388 10.7568 22.5196 10.6229C22.6004 10.4889 22.6462 10.3362 22.6527 10.1792C22.6592 10.0222 22.6261 9.86612 22.5566 9.72578L20.7441 6.03828C20.6688 5.88625 20.5535 5.7584 20.4112 5.66891C20.2688 5.57941 20.1049 5.53177 19.9375 5.53125H19.0312V2.76562H17.2188V5.53125H16.3125C16.1451 5.53177 15.9812 5.57941 15.8388 5.66891C15.6965 5.7584 15.5812 5.88625 15.5059 6.03828L13.6934 9.72578C13.6239 9.86612 13.5908 10.0222 13.5973 10.1792C13.6038 10.3362 13.6496 10.4889 13.7304 10.6229C13.8112 10.7568 13.9243 10.8675 14.059 10.9444C14.1937 11.0214 14.3455 11.062 14.5 11.0625H14.8444L13.6934 13.4133C13.6239 13.5536 13.5908 13.7097 13.5973 13.8667C13.6038 14.0237 13.6496 14.1764 13.7304 14.3104C13.8112 14.4443 13.9243 14.555 14.059 14.6319C14.1937 14.7089 14.3455 14.7495 14.5 14.75H14.8444L13.6934 17.1008C13.6239 17.2411 13.5908 17.3972 13.5973 17.5542C13.6038 17.7112 13.6496 17.8639 13.7304 17.9979C13.8112 18.1318 13.9243 18.2425 14.059 18.3194C14.1937 18.3964 14.3455 18.437 14.5 18.4375H15.4062V20.2812H9.0625C8.42492 20.2863 7.80935 20.5191 7.32341 20.939C6.83747 21.3589 6.51208 21.9392 6.40411 22.5785C6.29614 23.2177 6.41246 23.8752 6.73274 24.436C7.05302 24.9968 7.55688 25.4253 8.15625 25.6466V49.7812H6.34375ZM38.6244 7.375H41.1256L42.0319 9.21875H37.7181L38.6244 7.375ZM38.6244 11.0625H41.1256L42.0319 12.9062H37.7181L38.6244 11.0625ZM38.6244 14.75H41.1256L42.0319 16.5938H37.7181L38.6244 14.75ZM40.7812 18.4375V20.2812H38.9688V18.4375H40.7812ZM27.7494 7.375H30.2506L31.1569 9.21875H26.8431L27.7494 7.375ZM27.7494 11.0625H30.2506L31.1569 12.9062H26.8431L27.7494 11.0625ZM27.7494 14.75H30.2506L31.1569 16.5938H26.8431L27.7494 14.75ZM29.9062 18.4375V20.2812H28.0938V18.4375H29.9062ZM16.8744 7.375H19.3756L20.2819 9.21875H15.9681L16.8744 7.375ZM16.8744 11.0625H19.3756L20.2819 12.9062H15.9681L16.8744 11.0625ZM16.8744 14.75H19.3756L20.2819 16.5938H15.9681L16.8744 14.75ZM19.0312 18.4375V20.2812H17.2188V18.4375H19.0312ZM9.0625 22.125H48.9375C49.1779 22.125 49.4084 22.2221 49.5783 22.395C49.7483 22.5679 49.8438 22.8024 49.8438 23.0469C49.8438 23.2914 49.7483 23.5259 49.5783 23.6987C49.4084 23.8716 49.1779 23.9688 48.9375 23.9688H9.0625C8.82215 23.9688 8.59164 23.8716 8.42168 23.6987C8.25173 23.5259 8.15625 23.2914 8.15625 23.0469C8.15625 22.8024 8.25173 22.5679 8.42168 22.395C8.59164 22.2221 8.82215 22.125 9.0625 22.125ZM48.0312 25.8125V49.7812H9.96875V25.8125H48.0312ZM50.75 51.625V55.3125H7.25V51.625H50.75Z" fill="#0094D9"/>
<path d="M19.9387 47.9375H38.0637C38.2181 47.937 38.3699 47.8964 38.5046 47.8194C38.6393 47.7425 38.7525 47.6318 38.8333 47.4979C38.9141 47.3639 38.9599 47.2112 38.9664 47.0542C38.9728 46.8972 38.9397 46.7411 38.8702 46.6008L29.8077 28.1633C29.7317 28.0123 29.6161 27.8855 29.4738 27.7971C29.3315 27.7086 29.168 27.6617 29.0012 27.6617C28.8344 27.6617 28.6708 27.7086 28.5285 27.7971C28.3862 27.8855 28.2707 28.0123 28.1946 28.1633L19.1321 46.6008C19.0626 46.7411 19.0295 46.8972 19.036 47.0542C19.0424 47.2112 19.0882 47.3639 19.169 47.4979C19.2499 47.6318 19.363 47.7425 19.4977 47.8194C19.6324 47.8964 19.7842 47.937 19.9387 47.9375ZM29.0012 30.6431L36.5955 46.0937H21.4068L29.0012 30.6431Z" fill="#0094D9"/>
</svg>
