<svg width="131" height="184" viewBox="0 0 131 184" fill="none" xmlns="http://www.w3.org/2000/svg">
<g clip-path="url(#clip0_1_2667)">
<path d="M89.1325 27.3128C88.6725 27.3128 88.3025 26.9428 88.3025 26.4828C88.3025 26.0228 88.6725 25.6528 89.1325 25.6528C89.5925 25.6528 89.9625 26.0228 89.9625 26.4828C89.9625 26.9428 89.5925 27.3128 89.1325 27.3128Z" fill="#0094D9"/>
<path d="M89.1325 1.64874C88.6725 1.64874 88.3025 1.27874 88.3025 0.818741C88.3025 0.358741 88.6725 -0.011261 89.1325 -0.011261C89.5925 -0.011261 89.9625 0.358741 89.9625 0.818741C89.9625 1.27874 89.5925 1.64874 89.1325 1.64874Z" fill="#0094D9"/>
<path d="M106.789 27.3128C106.329 27.3128 105.959 26.9428 105.959 26.4828C105.959 26.0228 106.329 25.6528 106.789 25.6528C107.249 25.6528 107.619 26.0228 107.619 26.4828C107.619 26.9428 107.249 27.3128 106.789 27.3128Z" fill="#0094D9"/>
<path d="M106.789 1.64874C106.329 1.64874 105.959 1.27874 105.959 0.818741C105.959 0.358741 106.329 -0.011261 106.789 -0.011261C107.249 -0.011261 107.619 0.358741 107.619 0.818741C107.619 1.27874 107.249 1.64874 106.789 1.64874Z" fill="#0094D9"/>
<path d="M124.453 27.3128C123.993 27.3128 123.623 26.9428 123.623 26.4828C123.623 26.0228 123.993 25.6528 124.453 25.6528C124.913 25.6528 125.283 26.0228 125.283 26.4828C125.283 26.9428 124.913 27.3128 124.453 27.3128Z" fill="#0094D9"/>
<path d="M124.453 1.64874C123.993 1.64874 123.623 1.27874 123.623 0.818741C123.623 0.358741 123.993 -0.011261 124.453 -0.011261C124.913 -0.011261 125.283 0.358741 125.283 0.818741C125.283 1.27874 124.913 1.64874 124.453 1.64874Z" fill="#0094D9"/>
<path d="M0.827805 181.27C0.367805 181.27 -0.00218201 180.9 -0.00218201 180.44C-0.00218201 179.98 0.367805 179.61 0.827805 179.61C1.2878 179.61 1.65781 179.98 1.65781 180.44C1.65781 180.9 1.2878 181.27 0.827805 181.27Z" fill="#0094D9"/>
<path d="M0.827805 155.61C0.367805 155.61 -0.00218201 155.24 -0.00218201 154.78C-0.00218201 154.32 0.367805 153.95 0.827805 153.95C1.2878 153.95 1.65781 154.32 1.65781 154.78C1.65781 155.24 1.2878 155.61 0.827805 155.61Z" fill="#0094D9"/>
<path d="M0.827805 129.95C0.367805 129.95 -0.00218201 129.58 -0.00218201 129.12C-0.00218201 128.66 0.367805 128.29 0.827805 128.29C1.2878 128.29 1.65781 128.66 1.65781 129.12C1.65781 129.58 1.2878 129.95 0.827805 129.95Z" fill="#0094D9"/>
<path d="M0.827805 104.289C0.367805 104.289 -0.00218201 103.919 -0.00218201 103.459C-0.00218201 102.999 0.367805 102.629 0.827805 102.629C1.2878 102.629 1.65781 102.999 1.65781 103.459C1.65781 103.919 1.2878 104.289 0.827805 104.289Z" fill="#0094D9"/>
<path d="M0.827805 78.6292C0.367805 78.6292 -0.00218201 78.2592 -0.00218201 77.7992C-0.00218201 77.3392 0.367805 76.9692 0.827805 76.9692C1.2878 76.9692 1.65781 77.3392 1.65781 77.7992C1.65781 78.2592 1.2878 78.6292 0.827805 78.6292Z" fill="#0094D9"/>
<path d="M0.827805 52.9691C0.367805 52.9691 -0.00218201 52.5991 -0.00218201 52.1391C-0.00218201 51.6791 0.367805 51.3091 0.827805 51.3091C1.2878 51.3091 1.65781 51.6791 1.65781 52.1391C1.65781 52.5991 1.2878 52.9691 0.827805 52.9691Z" fill="#0094D9"/>
<path d="M0.827805 27.3128C0.367805 27.3128 -0.00218201 26.9428 -0.00218201 26.4828C-0.00218201 26.0228 0.367805 25.6528 0.827805 25.6528C1.2878 25.6528 1.65781 26.0228 1.65781 26.4828C1.65781 26.9428 1.2878 27.3128 0.827805 27.3128Z" fill="#0094D9"/>
<path d="M0.827805 1.64874C0.367805 1.64874 -0.00218201 1.27874 -0.00218201 0.818741C-0.00218201 0.358741 0.367805 -0.011261 0.827805 -0.011261C1.2878 -0.011261 1.65781 0.358741 1.65781 0.818741C1.65781 1.27874 1.2878 1.64874 0.827805 1.64874Z" fill="#0094D9"/>
<path d="M18.4919 181.27C18.0319 181.27 17.6619 180.9 17.6619 180.44C17.6619 179.98 18.0319 179.61 18.4919 179.61C18.9519 179.61 19.3219 179.98 19.3219 180.44C19.3219 180.9 18.9519 181.27 18.4919 181.27Z" fill="#0094D9"/>
<path d="M18.4919 155.61C18.0319 155.61 17.6619 155.24 17.6619 154.78C17.6619 154.32 18.0319 153.95 18.4919 153.95C18.9519 153.95 19.3219 154.32 19.3219 154.78C19.3219 155.24 18.9519 155.61 18.4919 155.61Z" fill="#0094D9"/>
<path d="M18.4919 129.95C18.0319 129.95 17.6619 129.58 17.6619 129.12C17.6619 128.66 18.0319 128.29 18.4919 128.29C18.9519 128.29 19.3219 128.66 19.3219 129.12C19.3219 129.58 18.9519 129.95 18.4919 129.95Z" fill="#0094D9"/>
<path d="M18.4919 104.289C18.0319 104.289 17.6619 103.919 17.6619 103.459C17.6619 102.999 18.0319 102.629 18.4919 102.629C18.9519 102.629 19.3219 102.999 19.3219 103.459C19.3219 103.919 18.9519 104.289 18.4919 104.289Z" fill="#0094D9"/>
<path d="M18.4919 78.6292C18.0319 78.6292 17.6619 78.2592 17.6619 77.7992C17.6619 77.3392 18.0319 76.9692 18.4919 76.9692C18.9519 76.9692 19.3219 77.3392 19.3219 77.7992C19.3219 78.2592 18.9519 78.6292 18.4919 78.6292Z" fill="#0094D9"/>
<path d="M18.4919 52.9691C18.0319 52.9691 17.6619 52.5991 17.6619 52.1391C17.6619 51.6791 18.0319 51.3091 18.4919 51.3091C18.9519 51.3091 19.3219 51.6791 19.3219 52.1391C19.3219 52.5991 18.9519 52.9691 18.4919 52.9691Z" fill="#0094D9"/>
<path d="M18.4919 27.3128C18.0319 27.3128 17.6619 26.9428 17.6619 26.4828C17.6619 26.0228 18.0319 25.6528 18.4919 25.6528C18.9519 25.6528 19.3219 26.0228 19.3219 26.4828C19.3219 26.9428 18.9519 27.3128 18.4919 27.3128Z" fill="#0094D9"/>
<path d="M18.4919 1.64874C18.0319 1.64874 17.6619 1.27874 17.6619 0.818741C17.6619 0.358741 18.0319 -0.011261 18.4919 -0.011261C18.9519 -0.011261 19.3219 0.358741 19.3219 0.818741C19.3219 1.27874 18.9519 1.64874 18.4919 1.64874Z" fill="#0094D9"/>
<path d="M36.1481 181.27C35.6881 181.27 35.3181 180.9 35.3181 180.44C35.3181 179.98 35.6881 179.61 36.1481 179.61C36.6081 179.61 36.9781 179.98 36.9781 180.44C36.9781 180.9 36.6081 181.27 36.1481 181.27Z" fill="#0094D9"/>
<path d="M36.1481 155.61C35.6881 155.61 35.3181 155.24 35.3181 154.78C35.3181 154.32 35.6881 153.95 36.1481 153.95C36.6081 153.95 36.9781 154.32 36.9781 154.78C36.9781 155.24 36.6081 155.61 36.1481 155.61Z" fill="#0094D9"/>
<path d="M36.1481 129.95C35.6881 129.95 35.3181 129.58 35.3181 129.12C35.3181 128.66 35.6881 128.29 36.1481 128.29C36.6081 128.29 36.9781 128.66 36.9781 129.12C36.9781 129.58 36.6081 129.95 36.1481 129.95Z" fill="#0094D9"/>
<path d="M36.1481 104.289C35.6881 104.289 35.3181 103.919 35.3181 103.459C35.3181 102.999 35.6881 102.629 36.1481 102.629C36.6081 102.629 36.9781 102.999 36.9781 103.459C36.9781 103.919 36.6081 104.289 36.1481 104.289Z" fill="#0094D9"/>
<path d="M36.1481 78.6292C35.6881 78.6292 35.3181 78.2592 35.3181 77.7992C35.3181 77.3392 35.6881 76.9692 36.1481 76.9692C36.6081 76.9692 36.9781 77.3392 36.9781 77.7992C36.9781 78.2592 36.6081 78.6292 36.1481 78.6292Z" fill="#0094D9"/>
<path d="M36.1481 52.9691C35.6881 52.9691 35.3181 52.5991 35.3181 52.1391C35.3181 51.6791 35.6881 51.3091 36.1481 51.3091C36.6081 51.3091 36.9781 51.6791 36.9781 52.1391C36.9781 52.5991 36.6081 52.9691 36.1481 52.9691Z" fill="#0094D9"/>
<path d="M36.1481 27.3128C35.6881 27.3128 35.3181 26.9428 35.3181 26.4828C35.3181 26.0228 35.6881 25.6528 36.1481 25.6528C36.6081 25.6528 36.9781 26.0228 36.9781 26.4828C36.9781 26.9428 36.6081 27.3128 36.1481 27.3128Z" fill="#0094D9"/>
<path d="M36.1481 1.64874C35.6881 1.64874 35.3181 1.27874 35.3181 0.818741C35.3181 0.358741 35.6881 -0.011261 36.1481 -0.011261C36.6081 -0.011261 36.9781 0.358741 36.9781 0.818741C36.9781 1.27874 36.6081 1.64874 36.1481 1.64874Z" fill="#0094D9"/>
<path d="M53.8122 27.3128C53.3522 27.3128 52.9822 26.9428 52.9822 26.4828C52.9822 26.0228 53.3522 25.6528 53.8122 25.6528C54.2722 25.6528 54.6422 26.0228 54.6422 26.4828C54.6422 26.9428 54.2722 27.3128 53.8122 27.3128Z" fill="#0094D9"/>
<path d="M53.8122 1.64874C53.3522 1.64874 52.9822 1.27874 52.9822 0.818741C52.9822 0.358741 53.3522 -0.011261 53.8122 -0.011261C54.2722 -0.011261 54.6422 0.358741 54.6422 0.818741C54.6422 1.27874 54.2722 1.64874 53.8122 1.64874Z" fill="#0094D9"/>
<path d="M71.4684 27.3128C71.0084 27.3128 70.6384 26.9428 70.6384 26.4828C70.6384 26.0228 71.0084 25.6528 71.4684 25.6528C71.9284 25.6528 72.2984 26.0228 72.2984 26.4828C72.2984 26.9428 71.9284 27.3128 71.4684 27.3128Z" fill="#0094D9"/>
<path d="M71.4684 1.64874C71.0084 1.64874 70.6384 1.27874 70.6384 0.818741C70.6384 0.358741 71.0084 -0.011261 71.4684 -0.011261C71.9284 -0.011261 72.2984 0.358741 72.2984 0.818741C72.2984 1.27874 71.9284 1.64874 71.4684 1.64874Z" fill="#0094D9"/>
</g>
<defs>
<clipPath id="clip0_1_2667">
<rect width="130.9" height="183.68" fill="white" transform="matrix(-1 0 0 -1 130.9 183.68)"/>
</clipPath>
</defs>
</svg>
