<svg width="94" height="33" viewBox="0 0 94 33" fill="none" xmlns="http://www.w3.org/2000/svg">
<g clip-path="url(#clip0_2166_5916)">
<path d="M92.961 29.3192H89.0219V28.9406C88.8044 28.1086 88.6763 28.0392 87.7798 28.0374C87.0546 28.0356 86.3317 28.0338 85.6066 28.0307C83.3434 28.0239 81.0006 28.0167 78.7029 28.0428C75.571 28.0793 72.6279 27.2734 69.721 25.5837C69.3074 25.3419 68.8938 25.0984 68.482 24.8544C65.6495 23.1782 62.9745 21.5965 59.834 21.0464C59.808 21.0428 59.7839 21.036 59.7597 21.0288H50.9976L50.9922 25.9488C51.2827 25.947 51.5719 25.947 51.8624 25.9452C53.2831 25.9398 54.7517 25.9349 56.202 25.9556C58.9844 25.9957 61.552 26.6345 63.8362 27.8542C65.1822 28.5727 66.5734 29.3161 67.9059 30.1688C71.1001 32.2173 74.4497 33.138 78.1457 32.9831C80.3448 32.8926 82.5717 32.9133 84.7261 32.9345C85.7315 32.9449 86.7713 32.9539 87.7923 32.9539C88.4897 32.9521 88.654 32.8859 88.6902 32.858C88.7368 32.8251 88.8357 32.6855 89.0188 32.1444L89.0197 31.4074H92.961C93.5344 31.4074 93.999 30.94 93.999 30.3633C93.999 29.7865 93.5344 29.3192 92.961 29.3192Z" fill="black"/>
<path d="M92.9634 15.2487H89.0109V14.8089C88.7531 14.043 88.6891 14.0273 87.7459 14.0273C80.4614 14.0187 73.1786 14.0097 65.8959 14.003L60.0218 13.9976H60.0164L51.0018 14.0273L51 18.9388L51.4445 18.9406H87.7442C88.6873 18.9406 88.7513 18.9248 89.0109 18.159V17.3373H92.9634C93.5368 17.3373 94.0014 16.87 94.0014 16.2932C94.0014 15.7165 93.5368 15.2492 92.9634 15.2492V15.2487Z" fill="black"/>
<path d="M59.8943 11.9094C62.4999 11.316 64.7756 10.3795 66.8485 9.05181C67.4282 8.68127 68.0267 8.34676 68.605 8.02305C68.9702 7.81955 69.3471 7.60704 69.7088 7.39499C72.5601 5.7017 75.6505 4.86968 78.9051 4.91831C81.12 4.95297 83.3777 4.94262 85.5599 4.93407C86.2989 4.93046 87.0357 4.92731 87.7747 4.92551C88.6588 4.92371 88.7836 4.8976 89.024 4.02056L89.0222 3.26734H92.9608C93.5342 3.26734 93.9989 2.80001 93.9989 2.22327C93.9989 1.64654 93.5342 1.1792 92.9608 1.1792H89.0177L89.0169 0.813624C88.7644 0.00772422 88.7174 0.00772418 87.8938 0.00592329C86.2501 0.0023215 84.6078 0.00412239 82.9641 0.00592329C80.8966 0.00772418 78.7561 0.00952507 76.6523 0.000520608C74.0691 -0.00488207 71.6278 0.666851 69.2017 2.06479L68.4317 2.50871C67.1529 3.24663 65.8727 3.98454 64.5907 4.71706C62.4641 5.92996 60.2202 6.65932 57.919 6.88398C56.218 7.05101 54.5171 7.03211 52.8716 7.01275C52.2557 7.00599 51.6241 6.99879 50.9961 7.00239L50.9997 11.9395C53.9656 11.9292 56.9311 11.9202 59.8952 11.9098L59.8943 11.9094Z" fill="black"/>
<path d="M47.5312 3.76953H40.3711V28.8168H48.0831C48.4242 28.453 48.6816 27.8457 48.9152 26.8727L48.922 12.9901V12.9865L48.9184 6.09808C48.5258 4.51105 48.1154 4.0095 47.5308 3.76953H47.5312Z" fill="black"/>
<path d="M32.3772 3.76953H0V28.8168H38.2965V3.76953H32.3772Z" fill="black"/>
</g>
<defs>
<clipPath id="clip0_2166_5916">
<rect width="94" height="33" fill="white"/>
</clipPath>
</defs>
</svg>
