<svg width="76" height="63" viewBox="0 0 76 63" fill="none" xmlns="http://www.w3.org/2000/svg">
<g clip-path="url(#clip0_2164_5849)">
<path d="M69.6927 61.1294H55.8633V62.9999H69.6927V61.1294Z" fill="black"/>
<path fill-rule="evenodd" clip-rule="evenodd" d="M24.2943 33.0461L17.6146 34.8169L7.29818 37.5603L0 39.4808V59.0342H47.4505V26.8857L34.4375 30.3275L24.2943 33.0461ZM10.3411 56.0912H4.9974V42.0995H10.3411V56.0912ZM21.0534 56.0912H15.7096V42.0995H21.0534V56.0912ZM31.7656 56.0912H26.4219V42.0995H31.7656V56.0912ZM37.1094 42.0995H42.4531V56.0912H37.1094V42.0995Z" fill="black"/>
<path fill-rule="evenodd" clip-rule="evenodd" d="M9.15365 17.6328L8.98047 20.6506H15.2891L15.0664 17.6328H9.15365Z" fill="black"/>
<path fill-rule="evenodd" clip-rule="evenodd" d="M8.16406 35.1411L16.2292 32.9962L15.4622 22.7456H8.85677L8.16406 35.1411Z" fill="black"/>
<path fill-rule="evenodd" clip-rule="evenodd" d="M25.9023 17.4582H32.2109L31.9883 14.4404H26.0755L25.9023 17.4582Z" fill="black"/>
<path fill-rule="evenodd" clip-rule="evenodd" d="M32.3841 19.5532H25.8034L25.1602 30.6269L33.0768 28.5318L32.3841 19.5532Z" fill="black"/>
<path d="M68.974 57.7627H56.5547V59.0347H68.974V57.7627Z" fill="black"/>
<path d="M67.9857 42.2495H63.8047V55.6426H67.9857V42.2495Z" fill="black"/>
<path d="M61.724 42.2495H57.543V55.6426H61.724V42.2495Z" fill="black"/>
<path fill-rule="evenodd" clip-rule="evenodd" d="M49.5273 19.8027V59.0343H54.4753V56.7148C54.4753 56.1412 54.9206 55.6923 55.4648 55.6673V42.2742H53.6589C53.0898 42.2742 52.6198 41.8004 52.6198 41.2267C52.6198 40.6531 53.0898 40.1792 53.6589 40.1792H71.8919C72.4609 40.1792 72.931 40.6531 72.931 41.2267C72.931 41.8004 72.4609 42.2742 71.8919 42.2742H70.0612V55.6673C70.6055 55.6923 71.0508 56.1662 71.0508 56.7148V59.0343H75.9987V19.8027H49.5273ZM58.7305 37.2861H53.7578V31.8241H58.7305V37.2861ZM58.7305 28.1329H53.7578V22.6709H58.7305V28.1329ZM71.793 37.2861H66.8203V31.8241H71.793V37.2861ZM71.793 28.1329H66.8203V22.6709H71.793V28.1329Z" fill="black"/>
<path fill-rule="evenodd" clip-rule="evenodd" d="M28.2018 7.50713H28.2266V8.92874C28.2266 9.40261 28.4245 9.8266 28.7214 10.1259C29.0182 10.4252 29.4635 10.6247 29.9089 10.6247C30.849 10.6247 31.5911 9.85154 31.5911 8.92874V7.50713H31.6159C32.8776 7.50713 33.9414 6.6342 34.2383 5.43705H35.5495C36.2917 5.43705 36.9596 5.13777 37.4544 4.63896C37.9492 4.14014 38.2461 3.46675 38.2461 2.71853C38.2461 1.22209 37.0339 0 35.5495 0H32.1107C30.849 0 29.7852 0.872922 29.4883 2.07007H28.1771C27.4349 2.07007 26.7669 2.36936 26.2721 2.86817C25.7773 3.36698 25.4805 4.04038 25.4805 4.7886C25.5052 6.28504 26.7174 7.50713 28.2018 7.50713Z" fill="black"/>
<path fill-rule="evenodd" clip-rule="evenodd" d="M6.67839 9.07817H7.98958C8.28646 10.2504 9.35026 11.1482 10.612 11.1482H10.6367V12.5699C10.6367 13.5176 11.4036 14.2658 12.319 14.2658C12.7891 14.2658 13.2096 14.0663 13.5065 13.767C13.8034 13.4677 14.0013 13.0188 14.0013 12.5699V11.1482H14.026C15.5104 11.1482 16.7227 9.92615 16.7227 8.42971C16.7227 7.68149 16.4258 7.0081 15.931 6.50928C15.4362 6.01047 14.7682 5.71118 14.026 5.71118H12.7148C12.418 4.53898 11.3542 3.64111 10.0924 3.64111H6.65365C5.16927 3.64111 3.95703 4.8632 3.95703 6.35964C3.95703 7.10786 4.25391 7.78126 4.7487 8.28007C5.24349 8.77888 5.91146 9.07817 6.67839 9.07817Z" fill="black"/>
</g>
<defs>
<clipPath id="clip0_2164_5849">
<rect width="76" height="63" fill="white"/>
</clipPath>
</defs>
</svg>
