<svg width="38" height="64" viewBox="0 0 38 64" fill="none" xmlns="http://www.w3.org/2000/svg">
<g clip-path="url(#clip0_2166_5985)">
<path fill-rule="evenodd" clip-rule="evenodd" d="M25.5117 23.2199C25.5117 26.799 22.6127 29.7295 19.0223 29.7295C15.4319 29.7295 12.5329 26.799 12.5329 23.2199C12.5329 19.6407 15.4542 16.7102 19.0223 16.7102C22.5904 16.7102 25.5117 19.6407 25.5117 23.2199ZM35.8592 10.9165H37.8662V35.5232H0.178404V10.9165H35.8592ZM27.5634 23.2199C27.5634 18.4998 23.7277 14.6522 19.0223 14.6522C14.3169 14.6522 10.4812 18.4998 10.4812 23.2199C10.4812 27.9399 14.3169 31.7875 19.0223 31.7875C23.7277 31.7875 27.5634 27.9399 27.5634 23.2199ZM3.21127 5.97274V8.85844H34.8333V5.97274H3.21127ZM0 0V3.91472H38V0H0ZM27.8087 41.2275H29.1244C29.7042 41.2275 30.1502 41.6973 30.1502 42.2566V64H31.7336V42.2566C31.7336 41.6749 32.2019 41.2275 32.7594 41.2275H34.0751V37.5813H27.831V41.2275H27.8087ZM15.9002 41.2275H17.1937C17.7512 41.2275 18.2195 41.6973 18.2195 42.2566V64H19.8028V42.2566C19.8028 41.6749 20.2711 41.2275 20.8286 41.2275H22.1221V37.5813H15.8779L15.9002 41.2275ZM3.96948 41.2275H5.28521C5.86502 41.2275 6.31103 41.6973 6.31103 42.2566V64H7.89437V42.2566C7.89437 41.6749 8.36268 41.2275 8.92019 41.2275H10.2359V37.5813H3.99178L3.96948 41.2275Z" fill="#0094D9"/>
</g>
<defs>
<clipPath id="clip0_2166_5985">
<rect width="38" height="64" fill="white"/>
</clipPath>
</defs>
</svg>
