<svg width="62" height="63" viewBox="0 0 62 63" fill="none" xmlns="http://www.w3.org/2000/svg">
<g clip-path="url(#clip0_2166_5866)">
<path d="M50.1715 23.6361C50.1598 23.6243 50.148 23.6183 50.1363 23.6183L50.1187 23.6006L38.7478 12.0491L37.8311 11.1072C37.6196 10.8939 37.3375 10.7695 37.0554 10.7695C36.7558 10.7695 36.4737 10.8939 36.2798 11.1072C35.839 11.5515 35.839 12.2623 36.2798 12.7066L37.1965 13.6307L48.5849 25.2L49.5016 26.1419C49.7132 26.3551 49.9953 26.4795 50.2773 26.4795C50.577 26.4795 50.8415 26.3551 51.053 26.1419C51.4937 25.6976 51.4937 24.9867 51.053 24.5425L50.1715 23.6361Z" fill="#0094D9"/>
<path d="M44.7418 29.092L33.3533 17.5227L32.4366 16.5808C32.2251 16.3676 31.943 16.2432 31.6609 16.2432C31.3612 16.2432 31.0968 16.3676 30.8852 16.5808C30.4445 17.0251 30.4445 17.736 30.8852 18.1803L31.7843 19.1044L43.1728 30.6736L44.0895 31.6155C44.1953 31.7221 44.3187 31.811 44.4421 31.8643C44.5655 31.9176 44.7241 31.9532 44.8652 31.9532C45.1649 31.9532 45.4293 31.8288 45.6408 31.6155C46.0816 31.1712 46.0816 30.4604 45.6408 30.0161L44.7418 29.092Z" fill="#0094D9"/>
<path d="M39.3668 34.5656L27.9783 22.9963L27.0616 22.0545C26.8501 21.8412 26.568 21.7168 26.2859 21.7168C25.9862 21.7168 25.7042 21.8412 25.5102 22.0545C25.0695 22.4987 25.0695 23.2096 25.5102 23.6539L26.427 24.578L37.8154 36.1473L38.7321 37.0892C38.9437 37.3024 39.2257 37.4268 39.5078 37.4268C39.7899 37.4268 40.0719 37.3024 40.2835 37.0892C40.7242 36.6449 40.7242 35.934 40.2835 35.4897L39.3668 34.5656Z" fill="#0094D9"/>
<path d="M33.9703 40.0392L22.5643 28.47L21.6475 27.5281C21.436 27.3148 21.1539 27.1904 20.8719 27.1904C20.5722 27.1904 20.3077 27.3148 20.0962 27.5281C19.6554 27.9724 19.6554 28.6832 20.0962 29.1275L21.0129 30.0516L32.4013 41.6209L33.318 42.5628C33.4238 42.6694 33.5472 42.7583 33.6706 42.8116C33.8117 42.8649 33.9527 42.9004 34.0937 42.9004C34.3934 42.9004 34.6579 42.776 34.8694 42.5628C35.3101 42.1185 35.3101 41.4076 34.8694 40.9634L33.9703 40.0392Z" fill="#0094D9"/>
<path d="M28.5934 45.5482C28.5817 45.5364 28.5699 45.5304 28.5582 45.5304L28.5405 45.5127L17.1697 33.9612L16.253 33.0193C16.0415 32.806 15.7594 32.6816 15.4773 32.6816C15.1776 32.6816 14.8956 32.806 14.7016 33.0193C14.2609 33.4636 14.2609 34.1744 14.7016 34.6187L15.6184 35.5429L27.0068 47.1121L27.9235 48.0362C28.1351 48.2495 28.4171 48.3739 28.6992 48.3739C28.9989 48.3739 29.281 48.2495 29.4749 48.0362C29.9156 47.5919 29.9156 46.8811 29.4749 46.4368L28.5934 45.5482Z" fill="#0094D9"/>
<path d="M29.582 22.4456L39.8951 32.9308L41.5699 31.2425L31.2392 20.7573L29.582 22.4456Z" fill="#0094D9"/>
<path d="M18.793 33.4107L29.106 43.8781L30.7808 42.1898L20.4677 31.7046L18.793 33.4107Z" fill="#0094D9"/>
<path d="M24.1875 27.9193L34.5006 38.4044L36.1753 36.7161L25.8623 26.231L24.1875 27.9193Z" fill="#0094D9"/>
<path d="M34.957 16.9717L45.2877 27.4569L46.9625 25.7508L36.6318 15.2656L34.957 16.9717Z" fill="#0094D9"/>
<path d="M13.0977 39.1864L23.4107 49.6716L25.3852 47.6634L15.0721 37.1782L13.0977 39.1864Z" fill="#0094D9"/>
<path d="M22.8814 51.3239L22.8637 51.3062L11.4753 39.7547L11.4577 39.7369L10.4881 38.7417L7.19141 42.0827L8.17864 43.0779L12.1452 47.1121L15.6005 50.6308L15.6181 50.6486L19.5847 54.665L20.5719 55.6602L23.8686 52.3014L22.8814 51.3239Z" fill="#0094D9"/>
<path d="M49.8361 15.8701L46.3807 12.3514L46.3631 12.3336L42.9431 8.86816L40.3516 11.4983L50.6646 21.9835L53.2561 19.3534L49.8361 15.8701Z" fill="#0094D9"/>
<path d="M60.6284 1.38618C60.1877 0.94189 59.6588 0.58646 59.0947 0.35543C58.5305 0.124401 57.9135 0 57.2965 0C56.0448 0 54.8637 0.497602 53.9646 1.40395C52.6953 2.70127 52.2545 4.56728 52.8187 6.30889C52.9068 6.59323 52.8363 6.89535 52.6424 7.09083L47.9883 11.8181L50.3682 14.235L55.0223 9.50776C55.2339 9.2945 55.5336 9.22341 55.798 9.31227C57.4904 9.88096 59.3415 9.43667 60.6108 8.15712C62.4618 6.29111 62.4618 3.26996 60.6284 1.38618ZM59.0241 6.53992C58.0722 7.51735 56.5208 7.51735 55.5688 6.53992C54.6168 5.56248 54.6168 3.99859 55.5688 3.02116C56.5208 2.04372 58.0722 2.04372 59.0241 3.02116C59.9761 3.99859 59.9761 5.56248 59.0241 6.53992Z" fill="#0094D9"/>
<path d="M13.9976 51.1821L11.6176 48.7651L6.96352 53.4924C6.75197 53.7056 6.45227 53.7767 6.18784 53.6878C5.69422 53.5279 5.18297 53.439 4.68936 53.439C3.47294 53.439 2.27416 53.9189 1.37507 54.843C-0.458358 56.709 -0.458358 59.7479 1.37507 61.6139C1.8158 62.0582 2.34468 62.4137 2.90881 62.6447C3.47294 62.8757 4.08997 63.0001 4.70699 63.0001C5.95866 63.0001 7.13981 62.5025 8.0389 61.5962C9.3082 60.2988 9.74893 58.4328 9.18479 56.6912C9.09665 56.4069 9.16716 56.1048 9.36108 55.9093L13.9976 51.1821ZM6.41702 59.9612C5.46504 60.9386 3.91367 60.9386 2.9617 59.9612C2.00972 58.9838 2.00972 57.4199 2.9617 56.4424C3.91367 55.465 5.46504 55.465 6.41702 56.4424C7.36899 57.4199 7.36899 58.9838 6.41702 59.9612Z" fill="#0094D9"/>
</g>
<defs>
<clipPath id="clip0_2166_5866">
<rect width="62" height="63" fill="white"/>
</clipPath>
</defs>
</svg>
