<svg width="53" height="60" viewBox="0 0 53 60" fill="none" xmlns="http://www.w3.org/2000/svg">
<g clip-path="url(#clip0_1_9563)" filter="url(#filter0_d_1_9563)">
<g filter="url(#filter1_d_1_9563)">
<path d="M26.4121 18.3828C22.2928 18.3828 18.9414 21.7999 18.9414 26C18.9414 30.2001 22.2928 33.6172 26.4121 33.6172C30.5315 33.6172 33.8828 30.2001 33.8828 26C33.8828 21.7999 30.5315 18.3828 26.4121 18.3828ZM26.4121 30.5703C23.9405 30.5703 21.9297 28.5201 21.9297 26C21.9297 23.4799 23.9405 21.4297 26.4121 21.4297C28.8837 21.4297 30.8945 23.4799 30.8945 26C30.8945 28.5201 28.8837 30.5703 26.4121 30.5703Z" fill="#0094D9"/>
</g>
<g filter="url(#filter2_d_1_9563)">
<path d="M48.5062 25.0604C48.4061 24.9302 46.0101 21.8343 42.1291 18.7106C36.9098 14.5095 31.4751 12.2891 26.4121 12.2891C21.3492 12.2891 15.9143 14.5095 10.695 18.7106C6.81406 21.8343 4.41806 24.9302 4.31795 25.0604C3.89402 25.6122 3.89402 26.3878 4.31795 26.9396C4.41806 27.0698 6.81406 30.1657 10.695 33.2894C15.9143 37.4905 21.3492 39.7109 26.4121 39.7109C31.4751 39.7109 36.9099 37.4905 42.1291 33.2894C46.0102 30.1657 48.4062 27.0698 48.5062 26.9396C48.9302 26.3878 48.9302 25.6122 48.5062 25.0604ZM26.4121 36.6641C17.5588 36.6641 9.87177 28.761 7.45615 25.9988C9.86799 23.2347 17.5382 15.3359 26.4121 15.3359C35.2634 15.3359 42.9492 23.2357 45.367 26C42.9491 28.7643 35.2634 36.6641 26.4121 36.6641Z" fill="#0094D9"/>
</g>
<g filter="url(#filter3_d_1_9563)">
<path d="M26.4121 0C25.5869 0 24.918 0.682094 24.918 1.52344V7.71875C24.918 8.56009 25.5869 9.24219 26.4121 9.24219C27.2373 9.24219 27.9062 8.56009 27.9062 7.71875V1.52344C27.9062 0.682094 27.2373 0 26.4121 0Z" fill="#0094D9"/>
</g>
<g filter="url(#filter4_d_1_9563)">
<path d="M26.4121 42.7578C25.5869 42.7578 24.918 43.4399 24.918 44.2812V50.4766C24.918 51.3179 25.5869 52 26.4121 52C27.2373 52 27.9062 51.3179 27.9062 50.4766V44.2812C27.9062 43.4399 27.2373 42.7578 26.4121 42.7578Z" fill="#0094D9"/>
</g>
<g filter="url(#filter5_d_1_9563)">
<path d="M12.6772 9.84111L8.45104 5.53211C7.86763 4.93716 6.92154 4.93726 6.33802 5.53211C5.75451 6.12707 5.75451 7.09161 6.33802 7.68656L10.5642 11.9956C11.1476 12.5905 12.0937 12.5905 12.6772 11.9956C13.2607 11.4006 13.2607 10.4361 12.6772 9.84111Z" fill="#0094D9"/>
</g>
<g filter="url(#filter6_d_1_9563)">
<path d="M46.4858 44.3128L42.2596 40.0038C41.6761 39.4089 40.73 39.4089 40.1466 40.0038C39.5631 40.5988 39.5631 41.5633 40.1466 42.1583L44.3727 46.4673C44.9562 47.0622 45.9022 47.0622 46.4858 46.4673C47.0693 45.8723 47.0693 44.9078 46.4858 44.3128Z" fill="#0094D9"/>
</g>
<g filter="url(#filter7_d_1_9563)">
<path d="M12.6772 40.0038C12.0938 39.4089 11.1477 39.4089 10.5642 40.0038L6.33802 44.3128C5.75451 44.9078 5.75451 45.8723 6.33802 46.4673C6.92164 47.0623 7.86773 47.062 8.45104 46.4673L12.6772 42.1583C13.2607 41.5633 13.2607 40.5988 12.6772 40.0038Z" fill="#0094D9"/>
</g>
<g filter="url(#filter8_d_1_9563)">
<path d="M46.4858 5.53211C45.9024 4.93726 44.9564 4.93716 44.3727 5.53211L40.1466 9.84111C39.5631 10.4361 39.5631 11.4006 40.1466 11.9956C40.73 12.5905 41.6761 12.5905 42.2596 11.9956L46.4858 7.68656C47.0693 7.09161 47.0693 6.12707 46.4858 5.53211Z" fill="#0094D9"/>
</g>
<g filter="url(#filter9_d_1_9563)">
<path d="M26.4121 27.5234C27.2373 27.5234 27.9062 26.8414 27.9062 26C27.9062 25.1586 27.2373 24.4766 26.4121 24.4766C25.5869 24.4766 24.918 25.1586 24.918 26C24.918 26.8414 25.5869 27.5234 26.4121 27.5234Z" fill="#0094D9"/>
</g>
</g>
<defs>
<filter id="filter0_d_1_9563" x="-3.08789" y="0" width="59" height="60" filterUnits="userSpaceOnUse" color-interpolation-filters="sRGB">
<feFlood flood-opacity="0" result="BackgroundImageFix"/>
<feColorMatrix in="SourceAlpha" type="matrix" values="0 0 0 0 0 0 0 0 0 0 0 0 0 0 0 0 0 0 127 0" result="hardAlpha"/>
<feOffset dy="4"/>
<feGaussianBlur stdDeviation="2"/>
<feComposite in2="hardAlpha" operator="out"/>
<feColorMatrix type="matrix" values="0 0 0 0 0 0 0 0 0 0 0 0 0 0 0 0 0 0 0.25 0"/>
<feBlend mode="normal" in2="BackgroundImageFix" result="effect1_dropShadow_1_9563"/>
<feBlend mode="normal" in="SourceGraphic" in2="effect1_dropShadow_1_9563" result="shape"/>
</filter>
<filter id="filter1_d_1_9563" x="16.9414" y="18.3828" width="22.9414" height="23.2344" filterUnits="userSpaceOnUse" color-interpolation-filters="sRGB">
<feFlood flood-opacity="0" result="BackgroundImageFix"/>
<feColorMatrix in="SourceAlpha" type="matrix" values="0 0 0 0 0 0 0 0 0 0 0 0 0 0 0 0 0 0 127 0" result="hardAlpha"/>
<feOffset dx="2" dy="4"/>
<feGaussianBlur stdDeviation="2"/>
<feComposite in2="hardAlpha" operator="out"/>
<feColorMatrix type="matrix" values="0 0 0 0 0 0 0 0 0 0 0 0 0 0 0 0 0 0 0.25 0"/>
<feBlend mode="normal" in2="BackgroundImageFix" result="effect1_dropShadow_1_9563"/>
<feBlend mode="normal" in="SourceGraphic" in2="effect1_dropShadow_1_9563" result="shape"/>
</filter>
<filter id="filter2_d_1_9563" x="2" y="12.2891" width="52.8242" height="35.4219" filterUnits="userSpaceOnUse" color-interpolation-filters="sRGB">
<feFlood flood-opacity="0" result="BackgroundImageFix"/>
<feColorMatrix in="SourceAlpha" type="matrix" values="0 0 0 0 0 0 0 0 0 0 0 0 0 0 0 0 0 0 127 0" result="hardAlpha"/>
<feOffset dx="2" dy="4"/>
<feGaussianBlur stdDeviation="2"/>
<feComposite in2="hardAlpha" operator="out"/>
<feColorMatrix type="matrix" values="0 0 0 0 0 0 0 0 0 0 0 0 0 0 0 0 0 0 0.25 0"/>
<feBlend mode="normal" in2="BackgroundImageFix" result="effect1_dropShadow_1_9563"/>
<feBlend mode="normal" in="SourceGraphic" in2="effect1_dropShadow_1_9563" result="shape"/>
</filter>
<filter id="filter3_d_1_9563" x="22.918" y="0" width="10.9883" height="17.2422" filterUnits="userSpaceOnUse" color-interpolation-filters="sRGB">
<feFlood flood-opacity="0" result="BackgroundImageFix"/>
<feColorMatrix in="SourceAlpha" type="matrix" values="0 0 0 0 0 0 0 0 0 0 0 0 0 0 0 0 0 0 127 0" result="hardAlpha"/>
<feOffset dx="2" dy="4"/>
<feGaussianBlur stdDeviation="2"/>
<feComposite in2="hardAlpha" operator="out"/>
<feColorMatrix type="matrix" values="0 0 0 0 0 0 0 0 0 0 0 0 0 0 0 0 0 0 0.25 0"/>
<feBlend mode="normal" in2="BackgroundImageFix" result="effect1_dropShadow_1_9563"/>
<feBlend mode="normal" in="SourceGraphic" in2="effect1_dropShadow_1_9563" result="shape"/>
</filter>
<filter id="filter4_d_1_9563" x="22.918" y="42.7578" width="10.9883" height="17.2422" filterUnits="userSpaceOnUse" color-interpolation-filters="sRGB">
<feFlood flood-opacity="0" result="BackgroundImageFix"/>
<feColorMatrix in="SourceAlpha" type="matrix" values="0 0 0 0 0 0 0 0 0 0 0 0 0 0 0 0 0 0 127 0" result="hardAlpha"/>
<feOffset dx="2" dy="4"/>
<feGaussianBlur stdDeviation="2"/>
<feComposite in2="hardAlpha" operator="out"/>
<feColorMatrix type="matrix" values="0 0 0 0 0 0 0 0 0 0 0 0 0 0 0 0 0 0 0.25 0"/>
<feBlend mode="normal" in2="BackgroundImageFix" result="effect1_dropShadow_1_9563"/>
<feBlend mode="normal" in="SourceGraphic" in2="effect1_dropShadow_1_9563" result="shape"/>
</filter>
<filter id="filter5_d_1_9563" x="3.90039" y="5.08594" width="15.2148" height="15.3555" filterUnits="userSpaceOnUse" color-interpolation-filters="sRGB">
<feFlood flood-opacity="0" result="BackgroundImageFix"/>
<feColorMatrix in="SourceAlpha" type="matrix" values="0 0 0 0 0 0 0 0 0 0 0 0 0 0 0 0 0 0 127 0" result="hardAlpha"/>
<feOffset dx="2" dy="4"/>
<feGaussianBlur stdDeviation="2"/>
<feComposite in2="hardAlpha" operator="out"/>
<feColorMatrix type="matrix" values="0 0 0 0 0 0 0 0 0 0 0 0 0 0 0 0 0 0 0.25 0"/>
<feBlend mode="normal" in2="BackgroundImageFix" result="effect1_dropShadow_1_9563"/>
<feBlend mode="normal" in="SourceGraphic" in2="effect1_dropShadow_1_9563" result="shape"/>
</filter>
<filter id="filter6_d_1_9563" x="37.709" y="39.5576" width="15.2148" height="15.3555" filterUnits="userSpaceOnUse" color-interpolation-filters="sRGB">
<feFlood flood-opacity="0" result="BackgroundImageFix"/>
<feColorMatrix in="SourceAlpha" type="matrix" values="0 0 0 0 0 0 0 0 0 0 0 0 0 0 0 0 0 0 127 0" result="hardAlpha"/>
<feOffset dx="2" dy="4"/>
<feGaussianBlur stdDeviation="2"/>
<feComposite in2="hardAlpha" operator="out"/>
<feColorMatrix type="matrix" values="0 0 0 0 0 0 0 0 0 0 0 0 0 0 0 0 0 0 0.25 0"/>
<feBlend mode="normal" in2="BackgroundImageFix" result="effect1_dropShadow_1_9563"/>
<feBlend mode="normal" in="SourceGraphic" in2="effect1_dropShadow_1_9563" result="shape"/>
</filter>
<filter id="filter7_d_1_9563" x="3.90039" y="39.5576" width="15.2148" height="15.3555" filterUnits="userSpaceOnUse" color-interpolation-filters="sRGB">
<feFlood flood-opacity="0" result="BackgroundImageFix"/>
<feColorMatrix in="SourceAlpha" type="matrix" values="0 0 0 0 0 0 0 0 0 0 0 0 0 0 0 0 0 0 127 0" result="hardAlpha"/>
<feOffset dx="2" dy="4"/>
<feGaussianBlur stdDeviation="2"/>
<feComposite in2="hardAlpha" operator="out"/>
<feColorMatrix type="matrix" values="0 0 0 0 0 0 0 0 0 0 0 0 0 0 0 0 0 0 0.25 0"/>
<feBlend mode="normal" in2="BackgroundImageFix" result="effect1_dropShadow_1_9563"/>
<feBlend mode="normal" in="SourceGraphic" in2="effect1_dropShadow_1_9563" result="shape"/>
</filter>
<filter id="filter8_d_1_9563" x="37.709" y="5.08594" width="15.2148" height="15.3555" filterUnits="userSpaceOnUse" color-interpolation-filters="sRGB">
<feFlood flood-opacity="0" result="BackgroundImageFix"/>
<feColorMatrix in="SourceAlpha" type="matrix" values="0 0 0 0 0 0 0 0 0 0 0 0 0 0 0 0 0 0 127 0" result="hardAlpha"/>
<feOffset dx="2" dy="4"/>
<feGaussianBlur stdDeviation="2"/>
<feComposite in2="hardAlpha" operator="out"/>
<feColorMatrix type="matrix" values="0 0 0 0 0 0 0 0 0 0 0 0 0 0 0 0 0 0 0.25 0"/>
<feBlend mode="normal" in2="BackgroundImageFix" result="effect1_dropShadow_1_9563"/>
<feBlend mode="normal" in="SourceGraphic" in2="effect1_dropShadow_1_9563" result="shape"/>
</filter>
<filter id="filter9_d_1_9563" x="22.918" y="24.4766" width="10.9883" height="11.0469" filterUnits="userSpaceOnUse" color-interpolation-filters="sRGB">
<feFlood flood-opacity="0" result="BackgroundImageFix"/>
<feColorMatrix in="SourceAlpha" type="matrix" values="0 0 0 0 0 0 0 0 0 0 0 0 0 0 0 0 0 0 127 0" result="hardAlpha"/>
<feOffset dx="2" dy="4"/>
<feGaussianBlur stdDeviation="2"/>
<feComposite in2="hardAlpha" operator="out"/>
<feColorMatrix type="matrix" values="0 0 0 0 0 0 0 0 0 0 0 0 0 0 0 0 0 0 0.25 0"/>
<feBlend mode="normal" in2="BackgroundImageFix" result="effect1_dropShadow_1_9563"/>
<feBlend mode="normal" in="SourceGraphic" in2="effect1_dropShadow_1_9563" result="shape"/>
</filter>
<clipPath id="clip0_1_9563">
<rect width="51" height="52" fill="white" transform="translate(0.912109)"/>
</clipPath>
</defs>
</svg>
