<svg width="50" height="58" viewBox="0 0 50 58" fill="none" xmlns="http://www.w3.org/2000/svg">
<g clip-path="url(#clip0_2166_5950)">
<path d="M37.8163 54.3643C39.7481 54.815 45.0059 54.4978 47.2807 54.5235C47.3238 55.4856 47.5703 57.1859 47.089 57.9995L37.5059 57.9685L37.4785 57.4072C37.4367 56.5098 37.198 55.0673 37.8163 54.3643Z" fill="black"/>
<path d="M2.80085 54.5156C6.46088 54.2768 10.2031 54.4455 13.8722 54.4603L13.8827 57.9472L2.71998 57.9161C2.71085 56.7799 2.68476 55.6464 2.80085 54.5143V54.5156Z" fill="black"/>
<path d="M4.92795 43.5979L11.421 43.5898C11.4002 46.9053 11.815 50.793 11.3689 54.0396C9.23625 54.0828 7.10101 54.0747 4.96708 54.0855C4.77012 50.6094 4.89795 47.0794 4.92664 43.5979H4.92795Z" fill="black"/>
<path d="M39.1399 43.5029C41.3429 43.5461 43.5512 43.511 45.7556 43.511L45.7595 53.9635C44.0769 54.3643 40.9386 54.0418 39.1164 54.0269C39.102 50.5198 39.1099 47.0114 39.1386 43.5043L39.1399 43.5029Z" fill="black"/>
<path d="M2.35563 0.171837C12.844 -0.170911 23.4223 0.108415 33.9198 0.105717L42.7073 0.0746803C44.4316 0.0638851 46.3582 -0.10614 48.0578 0.21097C48.9734 0.380995 49.3869 1.09618 49.8669 1.8343C50.0169 5.38593 50.1186 39.8335 49.7208 40.9346C49.3439 41.9777 48.6121 42.3973 47.6912 42.8264L18.9106 42.8129C13.9305 42.8183 8.85264 43.1125 3.88694 42.8804C3.17085 42.8467 2.38563 42.7414 1.72692 42.4324C0.987353 42.0856 0.57648 41.5904 0.311695 40.7996C-0.080917 39.6311 -0.0456993 6.89591 0.108215 3.21069C0.132998 2.6345 0.192998 2.08124 0.472131 1.56712C0.898657 0.783116 1.55997 0.426874 2.35563 0.171837Z" fill="black"/>
<path d="M45.5156 35.8945C45.7739 35.9364 46.0817 35.9714 46.3282 36.0727C46.7991 36.2643 47.1917 36.7123 47.3743 37.1954C47.5687 37.7041 47.54 38.2317 47.3195 38.7256C47.0234 39.3895 46.5526 39.6081 45.9252 39.8442C45.8873 39.8415 45.8495 39.8415 45.8117 39.8348C45.2104 39.7498 44.6456 39.4866 44.3038 38.9455C44.0508 38.5434 44.0091 38.063 44.1082 37.6029C44.296 36.7366 44.8308 36.3277 45.5143 35.8945H45.5156Z" fill="white"/>
<path d="M3.89635 35.7191C4.12722 35.707 4.3607 35.7029 4.59026 35.7326C5.11331 35.8014 5.59853 36.0821 5.90636 36.5301C6.1855 36.9363 6.26245 37.4234 6.17636 37.9092C6.0381 38.6878 5.60766 39.0265 5.02722 39.4583C4.88635 39.4664 4.74679 39.4731 4.60461 39.4718C4.02156 39.465 3.48025 39.3247 3.0746 38.8605C2.77851 38.5218 2.66894 38.0657 2.71851 37.6177C2.81634 36.742 3.28721 36.2589 3.89504 35.7178L3.89635 35.7191Z" fill="white"/>
<path d="M33.6853 4.96266L45.0711 4.95996C45.0919 7.05693 45.0711 9.15525 45.0672 11.2536L33.7127 11.2752C33.6162 9.18089 33.6814 7.06098 33.6853 4.96266Z" fill="white"/>
<path d="M33.6988 14.3086L45.0858 14.3261C45.0793 16.7024 45.1132 19.0868 45.0089 21.4618C41.2249 21.505 37.441 21.4996 33.657 21.4483C33.6283 19.0706 33.6792 16.6876 33.6988 14.3086Z" fill="white"/>
<path d="M6.51297 4.88086L26.2297 4.893L26.2088 29.9865C19.6635 29.9838 13.0791 30.1309 6.54036 29.8853C6.42166 21.5581 6.46731 13.208 6.51297 4.88086Z" fill="white"/>
<path d="M17.5429 7.54822C17.839 8.08394 17.6525 14.2588 17.6629 15.3086L21.5525 15.2978C20.8586 16.4732 15.2538 26.5734 15.0359 26.7043L15.1233 26.8136L14.9199 26.985L14.8181 26.9729C14.7594 24.1742 14.8207 21.3607 14.8233 18.5607L10.1094 18.5364C12.7246 15.0495 15.3125 11.305 17.5442 7.54688L17.5429 7.54822Z" fill="black"/>
</g>
<defs>
<clipPath id="clip0_2166_5950">
<rect width="50" height="58" fill="white"/>
</clipPath>
</defs>
</svg>
