<svg width="59" height="59" viewBox="0 0 59 59" fill="none" xmlns="http://www.w3.org/2000/svg">
<g clip-path="url(#clip0_2162_5814)">
<path d="M19.6656 14.75V9.83337C19.6656 9.31177 19.4584 8.81154 19.0896 8.44272C18.7208 8.0739 18.2206 7.8667 17.699 7.8667H15.7323C15.2107 7.8667 14.7105 8.0739 14.3416 8.44272C13.9728 8.81154 13.7656 9.31177 13.7656 9.83337V14.75C13.7656 15.2716 13.9728 15.7719 14.3416 16.1407C14.7105 16.5095 15.2107 16.7167 15.7323 16.7167H17.699C18.2206 16.7167 18.7208 16.5095 19.0896 16.1407C19.4584 15.7719 19.6656 15.2716 19.6656 14.75ZM15.7323 14.75V9.83337H17.699V14.75H15.7323Z" fill="black"/>
<path d="M12.7818 18.6833H7.8651C7.34351 18.6833 6.84328 18.8906 6.47446 19.2594C6.10564 19.6282 5.89844 20.1284 5.89844 20.65V22.6167C5.89844 23.1383 6.10564 23.6385 6.47446 24.0073C6.84328 24.3761 7.34351 24.5834 7.8651 24.5834H12.7818C13.3034 24.5834 13.8036 24.3761 14.1724 24.0073C14.5412 23.6385 14.7484 23.1383 14.7484 22.6167V20.65C14.7484 20.1284 14.5412 19.6282 14.1724 19.2594C13.8036 18.8906 13.3034 18.6833 12.7818 18.6833ZM12.7818 22.6167H7.8651V20.65H12.7818V22.6167Z" fill="black"/>
<path d="M27.5336 22.6167V20.65C27.5336 20.1284 27.3264 19.6282 26.9576 19.2594C26.5887 18.8906 26.0885 18.6833 25.5669 18.6833H20.6503C20.1287 18.6833 19.6284 18.8906 19.2596 19.2594C18.8908 19.6282 18.6836 20.1284 18.6836 20.65V22.6167C18.6836 23.1383 18.8908 23.6385 19.2596 24.0073C19.6284 24.3761 20.1287 24.5834 20.6503 24.5834H25.5669C26.0885 24.5834 26.5887 24.3761 26.9576 24.0073C27.3264 23.6385 27.5336 23.1383 27.5336 22.6167ZM20.6503 20.65H25.5669V22.6167H20.6503V20.65Z" fill="black"/>
<path d="M25.5682 13.7667H27.5349C28.0565 13.7667 28.5567 13.5595 28.9255 13.1907C29.2944 12.8218 29.5016 12.3216 29.5016 11.8V5.90002C29.5016 5.37842 29.2944 4.87819 28.9255 4.50937C28.5567 4.14055 28.0565 3.93335 27.5349 3.93335H25.5682C25.0466 3.93335 24.5464 4.14055 24.1776 4.50937C23.8088 4.87819 23.6016 5.37842 23.6016 5.90002V11.8C23.6016 12.3216 23.8088 12.8218 24.1776 13.1907C24.5464 13.5595 25.0466 13.7667 25.5682 13.7667ZM25.5682 11.8V9.83335H27.5349V11.8H25.5682ZM27.5349 5.90002V7.86668H25.5682V5.90002H27.5349Z" fill="black"/>
<path d="M56.6852 26.5736C54.1278 26.5348 51.6053 25.9736 49.2727 24.9243C46.9402 23.875 44.8468 22.3599 43.1211 20.472C42.8842 20.2296 42.6012 20.037 42.2888 19.9056C41.9764 19.7741 41.6409 19.7063 41.302 19.7063C40.963 19.7063 40.6275 19.7741 40.3151 19.9056C40.0027 20.037 39.7197 20.2296 39.4828 20.472C37.7953 22.3462 35.7348 23.847 33.4333 24.8783V3.93333C33.4333 2.89015 33.0189 1.88969 32.2813 1.15205C31.5436 0.414404 30.5432 0 29.5 0L3.93333 0C2.89015 0 1.88969 0.414404 1.15205 1.15205C0.414404 1.88969 0 2.89015 0 3.93333L0 29.5C0 30.5432 0.414404 31.5436 1.15205 32.2813C1.88969 33.0189 2.89015 33.4333 3.93333 33.4333H23.6V36.1463C23.6 54.2112 37.8269 58.2959 40.6785 58.9322C40.8826 58.9771 41.091 58.9999 41.3 59C41.5091 59 41.7175 58.9769 41.9215 58.9312C44.7731 58.2959 59 54.2112 59 36.1463V28.9798C58.9997 28.3574 58.7586 27.7592 58.327 27.3107C57.8955 26.8621 57.3072 26.598 56.6852 26.5736ZM3.93333 31.4667C3.41174 31.4667 2.91151 31.2595 2.54269 30.8906C2.17387 30.5218 1.96667 30.0216 1.96667 29.5V3.93333C1.96667 3.41174 2.17387 2.91151 2.54269 2.54269C2.91151 2.17387 3.41174 1.96667 3.93333 1.96667H29.5C30.0216 1.96667 30.5218 2.17387 30.8906 2.54269C31.2595 2.91151 31.4667 3.41174 31.4667 3.93333V25.6109C29.6665 26.175 27.7997 26.4987 25.9148 26.5736C25.2928 26.598 24.7045 26.8621 24.273 27.3107C23.8414 27.7592 23.6003 28.3574 23.6 28.9798V31.4667H3.93333ZM57.0333 36.1463C57.0333 52.7067 44.0887 56.4335 41.4967 57.0117C41.3699 57.0412 41.238 57.0412 41.1112 57.0117C38.5113 56.4335 25.5667 52.7067 25.5667 36.1463V28.9798C25.5693 28.8647 25.6158 28.755 25.6965 28.673C25.7773 28.5909 25.8863 28.5428 26.0013 28.5383C28.8184 28.4919 31.5963 27.8698 34.1641 26.7102C36.732 25.5507 39.0355 23.8782 40.9332 21.7956C40.9793 21.7439 41.0359 21.7026 41.0991 21.6743C41.1623 21.646 41.2307 21.6313 41.3 21.6313C41.3693 21.6313 41.4377 21.646 41.5009 21.6743C41.5641 21.7026 41.6207 21.7439 41.6668 21.7956C43.5645 23.8782 45.868 25.5507 48.4359 26.7102C51.0037 27.8698 53.7816 28.4919 56.5987 28.5383C56.7137 28.5428 56.8227 28.5909 56.9035 28.673C56.9842 28.755 57.0307 28.8647 57.0333 28.9798V36.1463Z" fill="black"/>
<path d="M53.4096 30.1824C49.4257 29.5736 45.6783 27.9066 42.5585 25.3552C42.2041 25.0647 41.7601 24.906 41.3018 24.906C40.8436 24.906 40.3995 25.0647 40.0451 25.3552C36.9254 27.9076 33.1782 29.5766 29.194 30.1883C28.733 30.2614 28.3129 30.4961 28.009 30.8504C27.7051 31.2048 27.5371 31.6557 27.5352 32.1225V36.1463C27.5352 49.8284 36.808 53.8247 40.7964 54.9093C41.1275 54.9985 41.4762 54.9985 41.8073 54.9093C45.7957 53.8247 55.0685 49.8284 55.0685 36.1463V32.1225C55.0679 31.6547 54.9006 31.2024 54.5966 30.8468C54.2925 30.4912 53.8717 30.2556 53.4096 30.1824ZM53.1018 36.1463C53.1018 48.4616 44.8566 52.04 41.3018 53.0085C37.7471 52.04 29.5018 48.4616 29.5018 36.1463L29.5126 32.1235C33.8438 31.4571 37.9178 29.6444 41.3126 26.8735C44.701 29.6479 48.7727 31.4608 53.1018 32.1225V36.1463Z" fill="black"/>
<path d="M37.4981 40.8084C37.5844 40.9578 37.7083 41.0818 37.8576 41.1681C38.0069 41.2544 38.1763 41.2999 38.3487 41.3001H42.5535L39.4619 46.7084C39.3326 46.9348 39.2985 47.2033 39.3671 47.4548C39.4357 47.7063 39.6014 47.9203 39.8277 48.0497C40.0541 48.179 40.3225 48.2131 40.574 48.1445C40.8255 48.0759 41.0395 47.9102 41.1689 47.6839L45.1023 40.8006C45.1867 40.6512 45.2306 40.4822 45.2295 40.3106C45.2284 40.139 45.1825 39.9706 45.0961 39.8223C45.0098 39.6739 44.8862 39.5508 44.7375 39.465C44.5889 39.3792 44.4204 39.3339 44.2487 39.3334H40.044L43.1356 33.9251C43.2033 33.8129 43.2479 33.6882 43.2667 33.5585C43.2856 33.4287 43.2783 33.2966 43.2453 33.1697C43.2123 33.0428 43.1543 32.9238 43.0746 32.8197C42.995 32.7156 42.8953 32.6284 42.7815 32.5634C42.6677 32.4984 42.542 32.4567 42.4118 32.441C42.2817 32.4252 42.1497 32.4356 42.0237 32.4716C41.8976 32.5076 41.78 32.5684 41.6778 32.6505C41.5756 32.7326 41.4909 32.8343 41.4285 32.9496L37.4952 39.833C37.4108 39.9818 37.3667 40.15 37.3672 40.3211C37.3677 40.4922 37.4128 40.6602 37.4981 40.8084Z" fill="black"/>
</g>
<defs>
<clipPath id="clip0_2162_5814">
<rect width="59" height="59" fill="white"/>
</clipPath>
</defs>
</svg>
